<svg data-v-6805eed4="" version="1.0" xmlns="http://www.w3.org/2000/svg" xmlns:xlink="http://www.w3.org/1999/xlink" width="100%" height="100%" viewBox="0 0 340.000000 250.000000" preserveAspectRatio="xMidYMid meet" color-interpolation-filters="sRGB" style="margin: auto;"> <rect data-v-6805eed4="" x="0" y="0" width="100%" height="100%" fill="#f7e7e7" fill-opacity="1" class="background"></rect> <rect data-v-6805eed4="" x="0" y="0" width="100%" height="100%" fill="url(#watermark)" fill-opacity="1" class="watermarklayer"></rect> <g data-v-6805eed4="" class="iconmbgsvg" transform="translate(68.66500091552734,55)"><g fill="#333333" hollow-target="textRect"><g transform="translate(31.334999084472656,0)" mask="url(#1a98c1ce-5d43-4c93-8427-f960c3ef1dad)"><g><rect fill="#333333" fill-opacity="0" stroke-width="2" x="0" y="0" width="140" height="140" class="image-rect"></rect> <svg filter="url(#colors1565892182)" x="0" y="0" width="140" height="140" filtersec="colorsf7385544050" class="image-svg-svg primary" style="overflow: visible;"><svg fill="#000000" xmlns="http://www.w3.org/2000/svg" xmlns:xlink="http://www.w3.org/1999/xlink" version="1.1" x="0px" y="0px" viewBox="5 5 90 90" style="enable-background:new 0 0 100 100;" xml:space="preserve"><path d="M50,5C25.2,5,5,25.2,5,50s20.2,45,45,45s45-20.2,45-45S74.8,5,50,5z M87.7,34.4c0.7,1.6,1.3,3.3,1.7,5.1l-2,0.5  c-0.4-1.6-1-3.2-1.6-4.8L87.7,34.4z M82.4,25.2c1.1,1.4,2.1,2.9,3,4.4l-1.8,1c-0.8-1.5-1.8-2.9-2.8-4.2L82.4,25.2z M74.9,17.7  c1.4,1.1,2.8,2.3,4,3.5l-1.5,1.5c-1.2-1.2-2.5-2.3-3.8-3.3L74.9,17.7z M65.7,12.3c1.6,0.7,3.2,1.5,4.8,2.4l-1.1,1.8  c-1.5-0.8-3-1.6-4.5-2.3L65.7,12.3z M55.4,9.5c1.8,0.2,3.5,0.6,5.2,1l-0.5,2c-1.6-0.4-3.3-0.8-5-1L55.4,9.5z M10.6,39.4l2,0.5  c-0.4,1.6-0.8,3.3-1,5l-2.1-0.3C9.8,42.9,10.1,41.1,10.6,39.4z M9.2,50l2.1,0v0c0,1.7,0.1,3.4,0.3,5l-2.1,0.3  C9.3,53.6,9.2,51.8,9.2,50z M12.3,65.6c-0.7-1.6-1.3-3.3-1.7-5.1l2-0.5c0.4,1.6,1,3.2,1.6,4.8L12.3,65.6z M12.3,34.4  c0.7-1.6,1.5-3.2,2.4-4.8l1.8,1c-0.8,1.5-1.6,3-2.2,4.5L12.3,34.4z M17.6,74.8c-1.1-1.4-2.1-2.9-3-4.4l1.8-1  c0.8,1.5,1.8,2.9,2.8,4.2L17.6,74.8z M17.6,25.1c1.1-1.4,2.3-2.8,3.5-4l1.5,1.5c-1.2,1.2-2.3,2.5-3.3,3.8L17.6,25.1z M25.1,82.4  c-1.4-1.1-2.8-2.3-4-3.5l1.5-1.5c1.2,1.2,2.5,2.3,3.8,3.3L25.1,82.4z M25.2,17.6c1.4-1.1,2.9-2.1,4.4-3l1,1.8  c-1.5,0.8-2.9,1.8-4.2,2.8L25.2,17.6z M34.3,87.7c-1.6-0.7-3.2-1.5-4.8-2.4l1-1.8c1.5,0.8,3,1.6,4.5,2.2L34.3,87.7z M34.4,12.3  c1.6-0.7,3.3-1.3,5.1-1.7l0.5,2c-1.6,0.4-3.2,1-4.8,1.6L34.4,12.3z M44.6,90.5c-1.8-0.2-3.5-0.6-5.2-1l0.5-2c1.6,0.4,3.3,0.8,5,1  L44.6,90.5z M44.7,9.5c1.8-0.2,3.5-0.3,5.3-0.3h0.1v2.1H50c-1.7,0-3.4,0.1-5.1,0.3L44.7,9.5z M50,90.8l0-2.1h0c1.7,0,3.4-0.1,5-0.3  l0.3,2.1C53.5,90.7,51.8,90.8,50,90.8z M60.5,89.4l-0.5-2c1.6-0.4,3.2-1,4.8-1.6l0.8,1.9C63.9,88.4,62.2,89,60.5,89.4z M70.4,85.4  l-1-1.8c1.5-0.8,2.9-1.8,4.2-2.8l1.3,1.7C73.4,83.5,71.9,84.5,70.4,85.4z M78.8,78.9l-1.5-1.5c1.2-1.2,2.3-2.5,3.3-3.8l1.7,1.3  C81.3,76.3,80.1,77.6,78.8,78.9z M85.3,70.5l-1.8-1.1c0.8-1.5,1.6-3,2.2-4.5l1.9,0.8C87,67.3,86.2,68.9,85.3,70.5z M89.4,60.6  l-2-0.5c0.4-1.6,0.8-3.3,1-5l2.1,0.3C90.2,57.2,89.9,58.9,89.4,60.6z M88.7,50.1L88.7,50.1c0-1.7-0.1-3.4-0.3-5.1l2.1-0.3  c0.2,1.7,0.3,3.5,0.3,5.3v0.1H88.7z"></path></svg></svg> <defs><filter id="colors1565892182"><feColorMatrix type="matrix" values="0 0 0 0 0.99609375  0 0 0 0 0.6015625  0 0 0 0 0.5703125  0 0 0 1 0" class="icon-fecolormatrix"></feColorMatrix></filter> <filter id="colorsf7385544050"><feColorMatrix type="matrix" values="0 0 0 0 0.99609375  0 0 0 0 0.99609375  0 0 0 0 0.99609375  0 0 0 1 0" class="icon-fecolormatrix"></feColorMatrix></filter> <filter id="colorsb6016156743"><feColorMatrix type="matrix" values="0 0 0 0 0  0 0 0 0 0  0 0 0 0 0  0 0 0 1 0" class="icon-fecolormatrix"></feColorMatrix></filter></defs></g></g> <g transform="translate(0,40.950998306274414)"><g data-gra="path-name" fill-rule="" class="tp-name" transform="translate(0,0)"><g transform="scale(1)"><g><path d="M14.12 0.46Q8.51 0.46 5.36-2.74 2.21-5.93 2.21-11.73L2.21-11.73Q2.21-15 3.4-17.76 4.6-20.52 7.08-22.22 9.57-23.92 13.2-23.92L13.2-23.92Q16.61-23.92 19.09-22.33 21.57-20.75 22.86-18.1 24.15-15.46 24.15-12.33L24.15-12.33Q24.15-11.45 23.57-10.86 23-10.26 22.03-10.26L22.03-10.26 6.44-10.26Q6.81-7.04 8.83-5.24 10.86-3.45 14.49-3.45L14.49-3.45Q16.42-3.45 17.87-3.82 19.32-4.19 20.7-4.88L20.7-4.88Q21.07-5.06 21.53-5.06L21.53-5.06Q22.26-5.06 22.82-4.55 23.37-4.05 23.37-3.27L23.37-3.27Q23.37-2.25 22.17-1.56L22.17-1.56Q20.38-0.55 18.63-0.05 16.88 0.46 14.12 0.46L14.12 0.46ZM6.44-13.66L20.01-13.66Q19.87-15.92 18.84-17.43 17.8-18.95 16.28-19.66 14.77-20.38 13.2-20.38L13.2-20.38Q11.64-20.38 10.12-19.66 8.6-18.95 7.59-17.43 6.58-15.92 6.44-13.66L6.44-13.66ZM35.65 0.46Q33.63 0.46 31.9-0.37 30.18-1.2 29.16-2.78 28.15-4.37 28.15-6.44L28.15-6.44Q28.15-9.84 30.84-11.87 33.53-13.89 38.73-13.89L38.73-13.89 44.3-13.89 44.3-14.26Q44.3-17.3 42.8-18.63 41.31-19.96 38.13-19.96L38.13-19.96Q36.39-19.96 35.03-19.69 33.67-19.41 32.02-18.86L32.02-18.86Q31.65-18.77 31.42-18.77L31.42-18.77Q30.73-18.77 30.22-19.27 29.72-19.78 29.72-20.52L29.72-20.52Q29.72-21.76 30.91-22.26L30.91-22.26Q34.82-23.92 38.87-23.92L38.87-23.92Q42.04-23.92 44.23-22.63 46.41-21.34 47.45-19.3 48.48-17.25 48.48-14.86L48.48-14.86 48.48-1.84Q48.48-0.97 47.86-0.37 47.24 0.23 46.37 0.23L46.37 0.23Q45.49 0.23 44.9-0.37 44.3-0.97 44.3-1.84L44.3-1.84 44.3-3.04Q40.89 0.46 35.65 0.46L35.65 0.46ZM37.21-3.22Q39.24-3.22 41.12-4.21 43.01-5.2 44.3-6.67L44.3-6.67 44.3-10.53 39.28-10.53Q32.34-10.53 32.34-6.9L32.34-6.9Q32.34-5.24 33.46-4.23 34.59-3.22 37.21-3.22L37.21-3.22ZM63.11 0.46Q58.51 0.46 54.74-1.61L54.74-1.61Q53.96-2.16 53.96-3.13L53.96-3.13Q53.96-3.86 54.46-4.42 54.97-4.97 55.75-4.97L55.75-4.97Q56.17-4.97 56.58-4.78L56.58-4.78Q58.05-4.14 59.52-3.77 61-3.4 62.84-3.4L62.84-3.4Q67.94-3.4 67.94-6.67L67.94-6.67Q67.94-7.73 66.77-8.28 65.6-8.83 62.93-9.52L62.93-9.52Q60.21-10.17 58.44-10.86 56.67-11.55 55.41-12.95 54.14-14.35 54.14-16.65L54.14-16.65Q54.14-19.87 56.46-21.9 58.79-23.92 63.11-23.92L63.11-23.92Q66.65-23.92 69.78-22.77L69.78-22.77Q70.43-22.59 70.77-22.08 71.12-21.57 71.12-21.02L71.12-21.02Q71.12-20.29 70.59-19.73 70.06-19.18 69.28-19.18L69.28-19.18Q69.05-19.18 68.68-19.27L68.68-19.27Q66.01-20.1 63.43-20.1L63.43-20.1Q60.95-20.1 59.55-19.2 58.14-18.31 58.14-16.88L58.14-16.88Q58.14-15.5 59.43-14.86 60.72-14.21 63.43-13.62L63.43-13.62Q66.15-12.93 67.85-12.26 69.55-11.59 70.77-10.17 71.99-8.74 71.99-6.35L71.99-6.35Q71.99-3.4 69.67-1.47 67.34 0.46 63.11 0.46L63.11 0.46ZM82.66 10.81Q81.83 10.81 81.26 10.21 80.68 9.61 80.68 8.79L80.68 8.79Q80.68 8.42 80.82 8.05L80.82 8.05 83.81 0.37 75.16-20.7Q74.98-21.16 74.98-21.57L74.98-21.57Q74.98-22.45 75.58-23.07 76.18-23.69 77.05-23.69L77.05-23.69Q77.69-23.69 78.22-23.32 78.75-22.95 78.98-22.4L78.98-22.4 86.07-4.83 93.29-22.31Q93.89-23.69 95.22-23.69L95.22-23.69Q96.09-23.69 96.69-23.07 97.29-22.45 97.29-21.57L97.29-21.57Q97.29-21.16 97.15-20.79L97.15-20.79 84.59 9.38Q83.95 10.81 82.66 10.81L82.66 10.81ZM124.94 0.46Q121.62 0.46 118.82-1.01 116.01-2.48 114.33-5.24 112.65-8 112.65-11.73L112.65-11.73Q112.65-15.46 114.33-18.22 116.01-20.98 118.82-22.45 121.62-23.92 124.94-23.92L124.94-23.92Q127.37-23.92 129.14-23.3 130.92-22.68 132.43-21.71L132.43-21.71Q133.35-21.11 133.35-20.1L133.35-20.1Q133.35-19.41 132.82-18.84 132.3-18.26 131.61-18.26L131.61-18.26Q131.1-18.26 130.59-18.54L130.59-18.54Q129.08-19.32 127.99-19.66 126.91-20.01 125.3-20.01L125.3-20.01Q121.35-20.01 119.09-17.73 116.84-15.46 116.84-11.73L116.84-11.73Q116.84-8 119.09-5.73 121.35-3.45 125.3-3.45L125.3-3.45Q126.91-3.45 127.99-3.79 129.08-4.14 130.59-4.92L130.59-4.92Q131.1-5.2 131.61-5.2L131.61-5.2Q132.3-5.2 132.82-4.62 133.35-4.05 133.35-3.36L133.35-3.36Q133.35-2.35 132.43-1.75L132.43-1.75Q130.92-0.78 129.14-0.16 127.37 0.46 124.94 0.46L124.94 0.46ZM140.67 0.23Q139.79 0.23 139.2-0.37 138.6-0.97 138.6-1.84L138.6-1.84 138.6-31.69Q138.6-32.57 139.2-33.19 139.79-33.81 140.67-33.81L140.67-33.81Q141.54-33.81 142.16-33.19 142.78-32.57 142.78-31.69L142.78-31.69 142.78-19.69Q144.53-21.62 146.56-22.77 148.58-23.92 151.34-23.92L151.34-23.92Q153.87-23.92 155.73-22.72 157.6-21.53 158.59-19.46 159.57-17.39 159.57-14.9L159.57-14.9 159.57-1.84Q159.57-0.97 158.95-0.37 158.33 0.23 157.46 0.23L157.46 0.23Q156.58 0.23 155.99-0.37 155.39-0.97 155.39-1.84L155.39-1.84 155.39-14.44Q155.39-20.06 150.33-20.06L150.33-20.06Q148.03-20.06 146.21-18.86 144.39-17.66 142.78-15.64L142.78-15.64 142.78-1.84Q142.78-0.97 142.16-0.37 141.54 0.23 140.67 0.23L140.67 0.23ZM172.59 0.46Q170.57 0.46 168.84-0.37 167.12-1.2 166.11-2.78 165.09-4.37 165.09-6.44L165.09-6.44Q165.09-9.84 167.78-11.87 170.48-13.89 175.67-13.89L175.67-13.89 181.24-13.89 181.24-14.26Q181.24-17.3 179.75-18.63 178.25-19.96 175.08-19.96L175.08-19.96Q173.33-19.96 171.97-19.69 170.61-19.41 168.96-18.86L168.96-18.86Q168.59-18.77 168.36-18.77L168.36-18.77Q167.67-18.77 167.16-19.27 166.66-19.78 166.66-20.52L166.66-20.52Q166.66-21.76 167.85-22.26L167.85-22.26Q171.76-23.92 175.81-23.92L175.81-23.92Q178.99-23.92 181.17-22.63 183.36-21.34 184.39-19.3 185.43-17.25 185.43-14.86L185.43-14.86 185.43-1.84Q185.43-0.97 184.81-0.37 184.18 0.23 183.31 0.23L183.31 0.23Q182.44 0.23 181.84-0.37 181.24-0.97 181.24-1.84L181.24-1.84 181.24-3.04Q177.84 0.46 172.59 0.46L172.59 0.46ZM174.16-3.22Q176.18-3.22 178.07-4.21 179.95-5.2 181.24-6.67L181.24-6.67 181.24-10.53 176.23-10.53Q169.28-10.53 169.28-6.9L169.28-6.9Q169.28-5.24 170.41-4.23 171.53-3.22 174.16-3.22L174.16-3.22ZM200.01 0.46Q193.29 0.46 193.29-5.61L193.29-5.61 193.29-19.87 190.03-19.87Q189.66-19.87 189.41-20.13 189.15-20.38 189.15-20.75L189.15-20.75Q189.15-21.21 189.57-21.53L189.57-21.53 195.82-27.65Q196.24-28.06 196.6-28.06L196.6-28.06Q196.97-28.06 197.23-27.78 197.48-27.51 197.48-27.14L197.48-27.14 197.48-23.46 202.68-23.46Q203.46-23.46 203.96-22.95 204.47-22.45 204.47-21.67L204.47-21.67Q204.47-20.93 203.96-20.4 203.46-19.87 202.68-19.87L202.68-19.87 197.48-19.87 197.48-5.98Q197.48-4.19 198.33-3.7 199.18-3.22 200.47-3.22L200.47-3.22Q201.39-3.22 202.31-3.5L202.31-3.5Q202.49-3.54 202.7-3.59 202.91-3.63 203.23-3.63L203.23-3.63Q203.87-3.63 204.38-3.15 204.88-2.67 204.88-1.98L204.88-1.98Q204.88-0.92 203.83-0.37L203.83-0.37Q202.03 0.46 200.01 0.46L200.01 0.46Z" transform="translate(-2.2100000381469727, 33.810001373291016)"></path></g> <!----> <!----> <!----> <!----> <!----> <!----> <!----></g></g> <g data-gra="path-slogan" fill-rule="" class="tp-slogan" fill="#333333" transform="translate(78.01999855041504,51.62000274658203)"><!----> <!----> <g transform="scale(1, 1)"><g transform="scale(1)"><path d="M0.46-0.93L1.01-1.57Q1.40-1.17 1.92-0.92Q2.44-0.67 3.00-0.67L3.00-0.67Q3.72-0.67 4.11-1.00Q4.51-1.32 4.51-1.85L4.51-1.85Q4.51-2.12 4.42-2.32Q4.32-2.51 4.16-2.65Q4.00-2.78 3.78-2.89Q3.56-3.00 3.31-3.12L3.31-3.12L2.28-3.57Q2.02-3.68 1.76-3.84Q1.50-3.99 1.29-4.21Q1.08-4.43 0.95-4.74Q0.81-5.04 0.81-5.43L0.81-5.43Q0.81-5.84 0.98-6.19Q1.16-6.54 1.46-6.80Q1.76-7.06 2.17-7.20Q2.58-7.35 3.08-7.35L3.08-7.35Q3.73-7.35 4.28-7.10Q4.83-6.85 5.21-6.46L5.21-6.46L4.72-5.86Q4.39-6.18 3.99-6.36Q3.59-6.54 3.08-6.54L3.08-6.54Q2.47-6.54 2.11-6.26Q1.74-5.98 1.74-5.49L1.74-5.49Q1.74-5.22 1.84-5.04Q1.95-4.86 2.12-4.72Q2.30-4.59 2.51-4.48Q2.72-4.38 2.94-4.29L2.94-4.29L3.96-3.85Q4.27-3.72 4.54-3.55Q4.82-3.38 5.02-3.15Q5.21-2.93 5.33-2.62Q5.44-2.32 5.44-1.92L5.44-1.92Q5.44-1.50 5.27-1.12Q5.10-0.75 4.79-0.47Q4.47-0.19 4.01-0.03Q3.56 0.13 2.99 0.13L2.99 0.13Q2.23 0.13 1.58-0.15Q0.93-0.44 0.46-0.93L0.46-0.93ZM8.86 0L8.86-7.22L9.78-7.22L9.78-0.78L12.93-0.78L12.93 0L8.86 0ZM18.59 0.13L18.59 0.13Q17.90 0.13 17.34-0.13Q16.77-0.40 16.36-0.89Q15.96-1.38 15.73-2.07Q15.51-2.77 15.51-3.64L15.51-3.64Q15.51-4.51 15.73-5.20Q15.96-5.88 16.36-6.36Q16.77-6.84 17.34-7.09Q17.90-7.35 18.59-7.35L18.59-7.35Q19.27-7.35 19.83-7.09Q20.40-6.83 20.81-6.35Q21.23-5.87 21.45-5.19Q21.68-4.50 21.68-3.64L21.68-3.64Q21.68-2.77 21.45-2.07Q21.23-1.38 20.81-0.89Q20.40-0.40 19.83-0.13Q19.27 0.13 18.59 0.13ZM18.59-0.67L18.59-0.67Q19.07-0.67 19.46-0.88Q19.85-1.09 20.13-1.48Q20.41-1.87 20.57-2.41Q20.72-2.96 20.72-3.64L20.72-3.64Q20.72-4.31 20.57-4.85Q20.41-5.39 20.13-5.76Q19.85-6.14 19.46-6.34Q19.07-6.54 18.59-6.54L18.59-6.54Q18.10-6.54 17.71-6.34Q17.32-6.14 17.04-5.76Q16.76-5.39 16.61-4.85Q16.45-4.31 16.45-3.64L16.45-3.64Q16.45-2.96 16.61-2.41Q16.76-1.87 17.04-1.48Q17.32-1.09 17.71-0.88Q18.10-0.67 18.59-0.67ZM24.81-3.61L24.81-3.61Q24.81-4.48 25.06-5.17Q25.30-5.86 25.75-6.35Q26.20-6.83 26.80-7.09Q27.41-7.35 28.13-7.35L28.13-7.35Q28.88-7.35 29.38-7.07Q29.88-6.79 30.20-6.46L30.20-6.46L29.68-5.87Q29.41-6.16 29.05-6.35Q28.69-6.54 28.14-6.54L28.14-6.54Q27.59-6.54 27.15-6.34Q26.71-6.14 26.41-5.76Q26.10-5.38 25.93-4.84Q25.76-4.30 25.76-3.63L25.76-3.63Q25.76-2.95 25.92-2.40Q26.07-1.86 26.38-1.47Q26.68-1.09 27.13-0.88Q27.57-0.67 28.15-0.67L28.15-0.67Q28.54-0.67 28.89-0.79Q29.23-0.90 29.45-1.10L29.45-1.10L29.45-2.98L27.92-2.98L27.92-3.74L30.29-3.74L30.29-0.70Q29.94-0.34 29.36-0.10Q28.78 0.13 28.05 0.13L28.05 0.13Q27.34 0.13 26.75-0.12Q26.15-0.37 25.72-0.85Q25.29-1.33 25.05-2.03Q24.81-2.73 24.81-3.61ZM34.87-2.94L37.04-2.94L36.70-4.04Q36.50-4.64 36.32-5.24Q36.15-5.84 35.97-6.47L35.97-6.47L35.93-6.47Q35.76-5.84 35.59-5.24Q35.41-4.64 35.21-4.04L35.21-4.04L34.87-2.94ZM37.95 0L37.27-2.20L34.64-2.20L33.95 0L33.01 0L35.46-7.22L36.49-7.22L38.93 0L37.95 0ZM41.95 0L41.95-7.22L42.90-7.22L45.51-2.68L46.29-1.19L46.33-1.19Q46.30-1.74 46.26-2.33Q46.22-2.92 46.22-3.49L46.22-3.49L46.22-7.22L47.09-7.22L47.09 0L46.15 0L43.53-4.54L42.75-6.03L42.70-6.03Q42.75-5.48 42.79-4.91Q42.82-4.34 42.82-3.77L42.82-3.77L42.82 0L41.95 0Z" transform="translate(-0.46199999999999997, 7.348)"></path></g></g></g></g></g></g><mask id="1a98c1ce-5d43-4c93-8427-f960c3ef1dad"><g fill="white"><g><rect fill-opacity="1" stroke-width="2" x="0" y="0" width="140" height="140" class="image-rect"></rect> <svg x="0" y="0" width="140" height="140" class="image-svg-svg primary" style="overflow: visible;" filter="url(#colorsf7385544050)"><svg xmlns="http://www.w3.org/2000/svg" xmlns:xlink="http://www.w3.org/1999/xlink" version="1.1" x="0px" y="0px" viewBox="5 5 90 90" style="enable-background:new 0 0 100 100;" xml:space="preserve"><path d="M50,5C25.2,5,5,25.2,5,50s20.2,45,45,45s45-20.2,45-45S74.8,5,50,5z M87.7,34.4c0.7,1.6,1.3,3.3,1.7,5.1l-2,0.5  c-0.4-1.6-1-3.2-1.6-4.8L87.7,34.4z M82.4,25.2c1.1,1.4,2.1,2.9,3,4.4l-1.8,1c-0.8-1.5-1.8-2.9-2.8-4.2L82.4,25.2z M74.9,17.7  c1.4,1.1,2.8,2.3,4,3.5l-1.5,1.5c-1.2-1.2-2.5-2.3-3.8-3.3L74.9,17.7z M65.7,12.3c1.6,0.7,3.2,1.5,4.8,2.4l-1.1,1.8  c-1.5-0.8-3-1.6-4.5-2.3L65.7,12.3z M55.4,9.5c1.8,0.2,3.5,0.6,5.2,1l-0.5,2c-1.6-0.4-3.3-0.8-5-1L55.4,9.5z M10.6,39.4l2,0.5  c-0.4,1.6-0.8,3.3-1,5l-2.1-0.3C9.8,42.9,10.1,41.1,10.6,39.4z M9.2,50l2.1,0v0c0,1.7,0.1,3.4,0.3,5l-2.1,0.3  C9.3,53.6,9.2,51.8,9.2,50z M12.3,65.6c-0.7-1.6-1.3-3.3-1.7-5.1l2-0.5c0.4,1.6,1,3.2,1.6,4.8L12.3,65.6z M12.3,34.4  c0.7-1.6,1.5-3.2,2.4-4.8l1.8,1c-0.8,1.5-1.6,3-2.2,4.5L12.3,34.4z M17.6,74.8c-1.1-1.4-2.1-2.9-3-4.4l1.8-1  c0.8,1.5,1.8,2.9,2.8,4.2L17.6,74.8z M17.6,25.1c1.1-1.4,2.3-2.8,3.5-4l1.5,1.5c-1.2,1.2-2.3,2.5-3.3,3.8L17.6,25.1z M25.1,82.4  c-1.4-1.1-2.8-2.3-4-3.5l1.5-1.5c1.2,1.2,2.5,2.3,3.8,3.3L25.1,82.4z M25.2,17.6c1.4-1.1,2.9-2.1,4.4-3l1,1.8  c-1.5,0.8-2.9,1.8-4.2,2.8L25.2,17.6z M34.3,87.7c-1.6-0.7-3.2-1.5-4.8-2.4l1-1.8c1.5,0.8,3,1.6,4.5,2.2L34.3,87.7z M34.4,12.3  c1.6-0.7,3.3-1.3,5.1-1.7l0.5,2c-1.6,0.4-3.2,1-4.8,1.6L34.4,12.3z M44.6,90.5c-1.8-0.2-3.5-0.6-5.2-1l0.5-2c1.6,0.4,3.3,0.8,5,1  L44.6,90.5z M44.7,9.5c1.8-0.2,3.5-0.3,5.3-0.3h0.1v2.1H50c-1.7,0-3.4,0.1-5.1,0.3L44.7,9.5z M50,90.8l0-2.1h0c1.7,0,3.4-0.1,5-0.3  l0.3,2.1C53.5,90.7,51.8,90.8,50,90.8z M60.5,89.4l-0.5-2c1.6-0.4,3.2-1,4.8-1.6l0.8,1.9C63.9,88.4,62.2,89,60.5,89.4z M70.4,85.4  l-1-1.8c1.5-0.8,2.9-1.8,4.2-2.8l1.3,1.7C73.4,83.5,71.9,84.5,70.4,85.4z M78.8,78.9l-1.5-1.5c1.2-1.2,2.3-2.5,3.3-3.8l1.7,1.3  C81.3,76.3,80.1,77.6,78.8,78.9z M85.3,70.5l-1.8-1.1c0.8-1.5,1.6-3,2.2-4.5l1.9,0.8C87,67.3,86.2,68.9,85.3,70.5z M89.4,60.6  l-2-0.5c0.4-1.6,0.8-3.3,1-5l2.1,0.3C90.2,57.2,89.9,58.9,89.4,60.6z M88.7,50.1L88.7,50.1c0-1.7-0.1-3.4-0.3-5.1l2.1-0.3  c0.2,1.7,0.3,3.5,0.3,5.3v0.1H88.7z"></path></svg></svg> <defs>  </defs></g></g> <g transform="translate(-31.334999084472656,40.950998306274414)"><rect fill="black" fill-opacity="1" x="-3.5" y="-3.5" width="209.6699981689453" height="51.62000274658203"></rect><rect fill="black" fill-opacity="1" x="-3.5" y="-3.5" transform="translate(78.01799857616425,51.62000274658203)" width="53.630001068115234" height="14.480000019073486"></rect></g><g transform="translate(-31.334999084472656,40.950998306274414)" fill="black"><g data-gra="path-name" fill-rule="" class="tp-name" transform="translate(0,0)"><g transform="scale(1)"><g><path d="M14.12 0.46Q8.51 0.46 5.36-2.74 2.21-5.93 2.21-11.73L2.21-11.73Q2.21-15 3.4-17.76 4.6-20.52 7.08-22.22 9.57-23.92 13.2-23.92L13.2-23.92Q16.61-23.92 19.09-22.33 21.57-20.75 22.86-18.1 24.15-15.46 24.15-12.33L24.15-12.33Q24.15-11.45 23.57-10.86 23-10.26 22.03-10.26L22.03-10.26 6.44-10.26Q6.81-7.04 8.83-5.24 10.86-3.45 14.49-3.45L14.49-3.45Q16.42-3.45 17.87-3.82 19.32-4.19 20.7-4.88L20.7-4.88Q21.07-5.06 21.53-5.06L21.53-5.06Q22.26-5.06 22.82-4.55 23.37-4.05 23.37-3.27L23.37-3.27Q23.37-2.25 22.17-1.56L22.17-1.56Q20.38-0.55 18.63-0.05 16.88 0.46 14.12 0.46L14.12 0.46ZM6.44-13.66L20.01-13.66Q19.87-15.92 18.84-17.43 17.8-18.95 16.28-19.66 14.77-20.38 13.2-20.38L13.2-20.38Q11.64-20.38 10.12-19.66 8.6-18.95 7.59-17.43 6.58-15.92 6.44-13.66L6.44-13.66ZM35.65 0.46Q33.63 0.46 31.9-0.37 30.18-1.2 29.16-2.78 28.15-4.37 28.15-6.44L28.15-6.44Q28.15-9.84 30.84-11.87 33.53-13.89 38.73-13.89L38.73-13.89 44.3-13.89 44.3-14.26Q44.3-17.3 42.8-18.63 41.31-19.96 38.13-19.96L38.13-19.96Q36.39-19.96 35.03-19.69 33.67-19.41 32.02-18.86L32.02-18.86Q31.65-18.77 31.42-18.77L31.42-18.77Q30.73-18.77 30.22-19.27 29.72-19.78 29.72-20.52L29.72-20.52Q29.72-21.76 30.91-22.26L30.91-22.26Q34.82-23.92 38.87-23.92L38.87-23.92Q42.04-23.92 44.23-22.63 46.41-21.34 47.45-19.3 48.48-17.25 48.48-14.86L48.48-14.86 48.48-1.84Q48.48-0.97 47.86-0.37 47.24 0.23 46.37 0.23L46.37 0.23Q45.49 0.23 44.9-0.37 44.3-0.97 44.3-1.84L44.3-1.84 44.3-3.04Q40.89 0.46 35.65 0.46L35.65 0.46ZM37.21-3.22Q39.24-3.22 41.12-4.21 43.01-5.2 44.3-6.67L44.3-6.67 44.3-10.53 39.28-10.53Q32.34-10.53 32.34-6.9L32.34-6.9Q32.34-5.24 33.46-4.23 34.59-3.22 37.21-3.22L37.21-3.22ZM63.11 0.46Q58.51 0.46 54.74-1.61L54.74-1.61Q53.96-2.16 53.96-3.13L53.96-3.13Q53.96-3.86 54.46-4.42 54.97-4.97 55.75-4.97L55.75-4.97Q56.17-4.97 56.58-4.78L56.58-4.78Q58.05-4.14 59.52-3.77 61-3.4 62.84-3.4L62.84-3.4Q67.94-3.4 67.94-6.67L67.94-6.67Q67.94-7.73 66.77-8.28 65.6-8.83 62.93-9.52L62.93-9.52Q60.21-10.17 58.44-10.86 56.67-11.55 55.41-12.95 54.14-14.35 54.14-16.65L54.14-16.65Q54.14-19.87 56.46-21.9 58.79-23.92 63.11-23.92L63.11-23.92Q66.65-23.92 69.78-22.77L69.78-22.77Q70.43-22.59 70.77-22.08 71.12-21.57 71.12-21.02L71.12-21.02Q71.12-20.29 70.59-19.73 70.06-19.18 69.28-19.18L69.28-19.18Q69.05-19.18 68.68-19.27L68.68-19.27Q66.01-20.1 63.43-20.1L63.43-20.1Q60.95-20.1 59.55-19.2 58.14-18.31 58.14-16.88L58.14-16.88Q58.14-15.5 59.43-14.86 60.72-14.21 63.43-13.62L63.43-13.62Q66.15-12.93 67.85-12.26 69.55-11.59 70.77-10.17 71.99-8.74 71.99-6.35L71.99-6.35Q71.99-3.4 69.67-1.47 67.34 0.46 63.11 0.46L63.11 0.46ZM82.66 10.81Q81.83 10.81 81.26 10.21 80.68 9.61 80.68 8.79L80.68 8.79Q80.68 8.42 80.82 8.05L80.82 8.05 83.81 0.37 75.16-20.7Q74.98-21.16 74.98-21.57L74.98-21.57Q74.98-22.45 75.58-23.07 76.18-23.69 77.05-23.69L77.05-23.69Q77.69-23.69 78.22-23.32 78.75-22.95 78.98-22.4L78.98-22.4 86.07-4.83 93.29-22.31Q93.89-23.69 95.22-23.69L95.22-23.69Q96.09-23.69 96.69-23.07 97.29-22.45 97.29-21.57L97.29-21.57Q97.29-21.16 97.15-20.79L97.15-20.79 84.59 9.38Q83.95 10.81 82.66 10.81L82.66 10.81ZM124.94 0.46Q121.62 0.46 118.82-1.01 116.01-2.48 114.33-5.24 112.65-8 112.65-11.73L112.65-11.73Q112.65-15.46 114.33-18.22 116.01-20.98 118.82-22.45 121.62-23.92 124.94-23.92L124.94-23.92Q127.37-23.92 129.14-23.3 130.92-22.68 132.43-21.71L132.43-21.71Q133.35-21.11 133.35-20.1L133.35-20.1Q133.35-19.41 132.82-18.84 132.3-18.26 131.61-18.26L131.61-18.26Q131.1-18.26 130.59-18.54L130.59-18.54Q129.08-19.32 127.99-19.66 126.91-20.01 125.3-20.01L125.3-20.01Q121.35-20.01 119.09-17.73 116.84-15.46 116.84-11.73L116.84-11.73Q116.84-8 119.09-5.73 121.35-3.45 125.3-3.45L125.3-3.45Q126.91-3.45 127.99-3.79 129.08-4.14 130.59-4.92L130.59-4.92Q131.1-5.2 131.61-5.2L131.61-5.2Q132.3-5.2 132.82-4.62 133.35-4.05 133.35-3.36L133.35-3.36Q133.35-2.35 132.43-1.75L132.43-1.75Q130.92-0.78 129.14-0.16 127.37 0.46 124.94 0.46L124.94 0.46ZM140.67 0.23Q139.79 0.23 139.2-0.37 138.6-0.97 138.6-1.84L138.6-1.84 138.6-31.69Q138.6-32.57 139.2-33.19 139.79-33.81 140.67-33.81L140.67-33.81Q141.54-33.81 142.16-33.19 142.78-32.57 142.78-31.69L142.78-31.69 142.78-19.69Q144.53-21.62 146.56-22.77 148.58-23.92 151.34-23.92L151.34-23.92Q153.87-23.92 155.73-22.72 157.6-21.53 158.59-19.46 159.57-17.39 159.57-14.9L159.57-14.9 159.57-1.84Q159.57-0.97 158.95-0.37 158.33 0.23 157.46 0.23L157.46 0.23Q156.58 0.23 155.99-0.37 155.39-0.97 155.39-1.84L155.39-1.84 155.39-14.44Q155.39-20.06 150.33-20.06L150.33-20.06Q148.03-20.06 146.21-18.86 144.39-17.66 142.78-15.64L142.78-15.64 142.78-1.84Q142.78-0.97 142.16-0.37 141.54 0.23 140.67 0.23L140.67 0.23ZM172.59 0.46Q170.57 0.46 168.84-0.37 167.12-1.2 166.11-2.78 165.09-4.37 165.09-6.44L165.09-6.44Q165.09-9.84 167.78-11.87 170.48-13.89 175.67-13.89L175.67-13.89 181.24-13.89 181.24-14.26Q181.24-17.3 179.75-18.63 178.25-19.96 175.08-19.96L175.08-19.96Q173.33-19.96 171.97-19.69 170.61-19.41 168.96-18.86L168.96-18.86Q168.59-18.77 168.36-18.77L168.36-18.77Q167.67-18.77 167.16-19.27 166.66-19.78 166.66-20.52L166.66-20.52Q166.66-21.76 167.85-22.26L167.85-22.26Q171.76-23.92 175.81-23.92L175.81-23.92Q178.99-23.92 181.17-22.63 183.36-21.34 184.39-19.3 185.43-17.25 185.43-14.86L185.43-14.86 185.43-1.84Q185.43-0.97 184.81-0.37 184.18 0.23 183.31 0.23L183.31 0.23Q182.44 0.23 181.84-0.37 181.24-0.97 181.24-1.84L181.24-1.84 181.24-3.04Q177.84 0.46 172.59 0.46L172.59 0.46ZM174.16-3.22Q176.18-3.22 178.07-4.21 179.95-5.2 181.24-6.67L181.24-6.67 181.24-10.53 176.23-10.53Q169.28-10.53 169.28-6.9L169.28-6.9Q169.28-5.24 170.41-4.23 171.53-3.22 174.16-3.22L174.16-3.22ZM200.01 0.46Q193.29 0.46 193.29-5.61L193.29-5.61 193.29-19.87 190.03-19.87Q189.66-19.87 189.41-20.13 189.15-20.38 189.15-20.75L189.15-20.75Q189.15-21.21 189.57-21.53L189.57-21.53 195.82-27.65Q196.24-28.06 196.6-28.06L196.6-28.06Q196.97-28.06 197.23-27.78 197.48-27.51 197.48-27.14L197.48-27.14 197.48-23.46 202.68-23.46Q203.46-23.46 203.96-22.95 204.47-22.45 204.47-21.67L204.47-21.67Q204.47-20.93 203.96-20.4 203.46-19.87 202.68-19.87L202.68-19.87 197.48-19.87 197.48-5.98Q197.48-4.19 198.33-3.7 199.18-3.22 200.47-3.22L200.47-3.22Q201.39-3.22 202.31-3.5L202.31-3.5Q202.49-3.54 202.7-3.59 202.91-3.63 203.23-3.63L203.23-3.63Q203.87-3.63 204.38-3.15 204.88-2.67 204.88-1.98L204.88-1.98Q204.88-0.92 203.83-0.37L203.83-0.37Q202.03 0.46 200.01 0.46L200.01 0.46Z" transform="translate(-2.2100000381469727, 33.810001373291016)"></path></g>       </g></g> <g data-gra="path-slogan" fill-rule="" class="tp-slogan" transform="translate(78.01999855041504,51.62000274658203)" fill="white">  <g transform="scale(1, 1)"><g transform="scale(1)"><path d="M0.46-0.93L1.01-1.57Q1.40-1.17 1.92-0.92Q2.44-0.67 3.00-0.67L3.00-0.67Q3.72-0.67 4.11-1.00Q4.51-1.32 4.51-1.85L4.51-1.85Q4.51-2.12 4.42-2.32Q4.32-2.51 4.16-2.65Q4.00-2.78 3.78-2.89Q3.56-3.00 3.31-3.12L3.31-3.12L2.28-3.57Q2.02-3.68 1.76-3.84Q1.50-3.99 1.29-4.21Q1.08-4.43 0.95-4.74Q0.81-5.04 0.81-5.43L0.81-5.43Q0.81-5.84 0.98-6.19Q1.16-6.54 1.46-6.80Q1.76-7.06 2.17-7.20Q2.58-7.35 3.08-7.35L3.08-7.35Q3.73-7.35 4.28-7.10Q4.83-6.85 5.21-6.46L5.21-6.46L4.72-5.86Q4.39-6.18 3.99-6.36Q3.59-6.54 3.08-6.54L3.08-6.54Q2.47-6.54 2.11-6.26Q1.74-5.98 1.74-5.49L1.74-5.49Q1.74-5.22 1.84-5.04Q1.95-4.86 2.12-4.72Q2.30-4.59 2.51-4.48Q2.72-4.38 2.94-4.29L2.94-4.29L3.96-3.85Q4.27-3.72 4.54-3.55Q4.82-3.38 5.02-3.15Q5.21-2.93 5.33-2.62Q5.44-2.32 5.44-1.92L5.44-1.92Q5.44-1.50 5.27-1.12Q5.10-0.75 4.79-0.47Q4.47-0.19 4.01-0.03Q3.56 0.13 2.99 0.13L2.99 0.13Q2.23 0.13 1.58-0.15Q0.93-0.44 0.46-0.93L0.46-0.93ZM8.86 0L8.86-7.22L9.78-7.22L9.78-0.78L12.93-0.78L12.93 0L8.86 0ZM18.59 0.13L18.59 0.13Q17.90 0.13 17.34-0.13Q16.77-0.40 16.36-0.89Q15.96-1.38 15.73-2.07Q15.51-2.77 15.51-3.64L15.51-3.64Q15.51-4.51 15.73-5.20Q15.96-5.88 16.36-6.36Q16.77-6.84 17.34-7.09Q17.90-7.35 18.59-7.35L18.59-7.35Q19.27-7.35 19.83-7.09Q20.40-6.83 20.81-6.35Q21.23-5.87 21.45-5.19Q21.68-4.50 21.68-3.64L21.68-3.64Q21.68-2.77 21.45-2.07Q21.23-1.38 20.81-0.89Q20.40-0.40 19.83-0.13Q19.27 0.13 18.59 0.13ZM18.59-0.67L18.59-0.67Q19.07-0.67 19.46-0.88Q19.85-1.09 20.13-1.48Q20.41-1.87 20.57-2.41Q20.72-2.96 20.72-3.64L20.72-3.64Q20.72-4.31 20.57-4.85Q20.41-5.39 20.13-5.76Q19.85-6.14 19.46-6.34Q19.07-6.54 18.59-6.54L18.59-6.54Q18.10-6.54 17.71-6.34Q17.32-6.14 17.04-5.76Q16.76-5.39 16.61-4.85Q16.45-4.31 16.45-3.64L16.45-3.64Q16.45-2.96 16.61-2.41Q16.76-1.87 17.04-1.48Q17.32-1.09 17.71-0.88Q18.10-0.67 18.59-0.67ZM24.81-3.61L24.81-3.61Q24.81-4.48 25.06-5.17Q25.30-5.86 25.75-6.35Q26.20-6.83 26.80-7.09Q27.41-7.35 28.13-7.35L28.13-7.35Q28.88-7.35 29.38-7.07Q29.88-6.79 30.20-6.46L30.20-6.46L29.68-5.87Q29.41-6.16 29.05-6.35Q28.69-6.54 28.14-6.54L28.14-6.54Q27.59-6.54 27.15-6.34Q26.71-6.14 26.41-5.76Q26.10-5.38 25.93-4.84Q25.76-4.30 25.76-3.63L25.76-3.63Q25.76-2.95 25.92-2.40Q26.07-1.86 26.38-1.47Q26.68-1.09 27.13-0.88Q27.57-0.67 28.15-0.67L28.15-0.67Q28.54-0.67 28.89-0.79Q29.23-0.90 29.45-1.10L29.45-1.10L29.45-2.98L27.92-2.98L27.92-3.74L30.29-3.74L30.29-0.70Q29.94-0.34 29.36-0.10Q28.78 0.13 28.05 0.13L28.05 0.13Q27.34 0.13 26.75-0.12Q26.15-0.37 25.72-0.85Q25.29-1.33 25.05-2.03Q24.81-2.73 24.81-3.61ZM34.87-2.94L37.04-2.94L36.70-4.04Q36.50-4.64 36.32-5.24Q36.15-5.84 35.97-6.47L35.97-6.47L35.93-6.47Q35.76-5.84 35.59-5.24Q35.41-4.64 35.21-4.04L35.21-4.04L34.87-2.94ZM37.95 0L37.27-2.20L34.64-2.20L33.95 0L33.01 0L35.46-7.22L36.49-7.22L38.93 0L37.95 0ZM41.95 0L41.95-7.22L42.90-7.22L45.51-2.68L46.29-1.19L46.33-1.19Q46.30-1.74 46.26-2.33Q46.22-2.92 46.22-3.49L46.22-3.49L46.22-7.22L47.09-7.22L47.09 0L46.15 0L43.53-4.54L42.75-6.03L42.70-6.03Q42.75-5.48 42.79-4.91Q42.82-4.34 42.82-3.77L42.82-3.77L42.82 0L41.95 0Z" transform="translate(-0.46199999999999997, 7.348)"></path></g></g></g></g></mask><defs v-gra="od"></defs></svg>